{"title":"The.Quiet.Ones.2014.AVI.BRRip.720p.DivX.NLSub.{Th3Sp3cialist}","uid":11054087,"size":2480484215,"categoryP":"video","categoryS":"hd___movies","magnet":"?xt=urn:btih:82e2ab678995fea281633562731b43b58ec056c2&amp;dn=The.Quiet.Ones.2014.AVI.BRRip.720p.DivX.NLSub.%7BTh3Sp3cialist%7D&amp;tr=udp%3A%2F%2Ftracker.openbittorrent.com%3A80&amp;tr=udp%3A%2F%2Fopen.demonii.com%3A1337&amp;tr=udp%3A%2F%2Ftracker.coppersurfer.tk%3A6969&amp;tr=udp%3A%2F%2Fexodus.desync.com%3A6969","seeders":0,"leechers":0,"uploader":"HOLLANDmovies","files":-1,"time":1411065428,"description":"THE QUIET ONES DivX 720p \n\nINFO\n\nThe Quiet Ones (2014)\n98 min - Horror\n\nA university professor and a team of students conduct an experiment on a young woman, uncovering terrifyingly dark, unexpected forces in the process.\n\nDirector: John Pogue\nWriters: Craig Rosenberg (screenplay), Oren Moverman (screenplay),\nStars: Jared Harris, Sam Claflin, Olivia Cooke \n &lt;a href=&quot;\nhttp://bayimg.com/kaAJhaAGH&quot; rel=&quot;nofollow&quot; target=&quot;_NEW&quot;&gt;\nhttp://bayimg.com/kaAJhaAGH&lt;/a&gt; &lt;a href=&quot;\nhttp://bayimg.com/KaAJiaagH&quot; rel=&quot;nofollow&quot; target=&quot;_NEW&quot;&gt;\nhttp://bayimg.com/KaAJiaagH&lt;/a&gt;\n\nComplete name                  : The.Quiet.Ones.2014.AVI.BRRip.720p.DivX.NLaudio.{Th3Sp3cialist}.avi\nFormat                         : AVI\nFormat/Info                    : Audio Video Interleave\nFormat profile                 : OpenDML\nFile size                      : 2.28 GiB\nDuration                       : 1h 38mn\nOverall bit rate               : 3 329 Kbps\n\nVideo\nID                             : 0\nFormat                         : MPEG-4 Visual\nFormat profile                 : Advanced Simple@L5\nFormat settings, BVOP          : No\nFormat settings, QPel          : No\nFormat settings, GMC           : No warppoints\nFormat settings, Matrix        : Default (H.263)\nCodec ID                       : XVID\nCodec ID/Hint                  : XviD\nDuration                       : 1h 38mn\nBit rate                       : 2 998 Kbps\nWidth                          : 1 280 pixels\nHeight                         : 720 pixels\nDisplay aspect ratio           : 16:9\nFrame rate                     : 23.976 fps\nColor space                    : YUV\nChroma subsampling             : 4:2:0\nBit depth                      : 8 bits\nScan type                      : Progressive\nCompression mode               : Lossy\nBits/(Pixel*Frame)             : 0.136\nStream size                    : 2.06 GiB (90%)\n\nAudio\nID                             : 1\nFormat                         : MPEG Audio\nFormat version                 : Version 1\nFormat profile                 : Layer 3\nCodec ID                       : 55\nCodec ID/Hint                  : MP3\nDuration                       : 1h 38mn\nBit rate mode                  : Constant\nBit rate                       : 320 Kbps\nChannel(s)                     : 2 channels\nSampling rate                  : 48.0 KHz\nCompression mode               : Lossy\nStream size                    : 225 MiB (10%)\nAlignment                      : Aligned on interleaves\nInterleave, duration           : 47 ms (1.13 video frame)\n\n","torrent":{"xt":"urn:btih:82e2ab678995fea281633562731b43b58ec056c2","amp;dn":"The.Quiet.Ones.2014.AVI.BRRip.720p.DivX.NLSub.%7BTh3Sp3cialist%7D","amp;tr":["udp%3A%2F%2Ftracker.openbittorrent.com%3A80","udp%3A%2F%2Fopen.demonii.com%3A1337","udp%3A%2F%2Ftracker.coppersurfer.tk%3A6969","udp%3A%2F%2Fexodus.desync.com%3A6969"],"infoHash":"82e2ab678995fea281633562731b43b58ec056c2","infoHashBuffer":{"type":"Buffer","data":[130,226,171,103,137,149,254,162,129,99,53,98,115,27,67,181,142,192,86,194]},"announce":[],"urlList":[]}}